<svg xmlns="http://www.w3.org/2000/svg" width="140" height="44" fill="none"><path fill="#fff" d="M60.561 9.875h2.885l9.527 12.703q.776 1.116 1.091 1.964h.049a68 68 0 0 1-.025-2.182V9.875h2.134v17.212h-2.74L63.81 14.215q-.824-1.188-1.091-1.891h-.049q.05 1.212.049 2.109v12.654H60.56zM89.054 11.96h.049l-6.57 15.127h-2.497l7.855-17.212h2.4l7.854 17.212h-2.497zm0 0 1.26 2.667q-.824-1.576-1.211-2.667zq-.218.655-.485 1.237-.242.557-.703 1.43l1.237-2.667zM112.607 11.863h-6.569v15.224h-2.376V11.863h-6.57V9.875h15.515zM116.175 27.087V9.875h2.375v17.212zM129.448 18.07l-6.739-8.195h2.957l4.63 5.794q.46.63.655.97h.048q.097-.217.243-.436.17-.219.412-.51l4.581-5.818h2.861l-6.666 8.291 7.296 8.921h-3.006l-5.042-6.375a27 27 0 0 1-.461-.63 3 3 0 0 1-.29-.51h-.049q-.218.436-.776 1.14l-5.091 6.375h-2.836zM60.57 32.613h1.254l4.145 5.526q.337.485.474.854h.021q-.01-.284-.01-.95v-5.43h.928V40.1H66.19l-4.207-5.6q-.36-.516-.475-.822h-.021q.021.528.021.918V40.1h-.939zm14.207 5.125h-4.871q.02.791.569 1.255.559.465 1.508.464.706 0 1.192-.264.495-.263.759-.78l.78.358q-.77 1.488-2.773 1.487-1.392 0-2.194-.717-.79-.717-.79-2.014 0-1.35.79-2.098.802-.76 2.152-.76 1.36 0 2.12.665.758.664.758 1.877zm-.96-.801q0-.738-.537-1.15-.528-.411-1.392-.411-.886 0-1.413.443-.526.432-.57 1.191h3.913zm1.487-2.11h1.265v-1.38l.939-.391v1.772h1.877v.759h-1.877v2.72q0 .539.253.791.253.243.79.243.403 0 .844-.106v.834q-.411.136-1.022.136-1.023 0-1.413-.484-.39-.495-.39-1.36v-2.774h-1.266zm4.975 0h.97l1.308 3.892q.073.232.126.538h.021q.012-.127.064-.296t.073-.242l1.414-3.891h1.012l1.413 3.89q.126.466.137.538h.021q.042-.253.116-.537l1.308-3.891h.98L87.386 40.1h-1.075l-1.413-3.891a2 2 0 0 1-.127-.517h-.02a4 4 0 0 1-.127.517L83.2 40.1h-1.065zm12.547 5.431q-.897 0-1.582-.337a2.57 2.57 0 0 1-1.065-.98q-.37-.634-.37-1.477t.37-1.477a2.5 2.5 0 0 1 1.065-.97q.685-.348 1.582-.348.896 0 1.57.348.687.338 1.055.97.38.633.38 1.477 0 .843-.38 1.476a2.5 2.5 0 0 1-1.054.98q-.675.338-1.571.338m0-.801q.938 0 1.476-.517.548-.526.548-1.476 0-.949-.548-1.466-.538-.527-1.476-.527-.95 0-1.487.527-.538.517-.538 1.466 0 .95.538 1.476.537.517 1.487.517m5.349-3.29q.21-.665.717-1.076a1.83 1.83 0 0 1 1.191-.411q.212 0 .401.032v.906a4 4 0 0 0-.327-.02q-.474 0-.812.126a1.6 1.6 0 0 0-.57.38q-.315.326-.432.79-.105.455-.105 1.065V40.1h-.928v-5.272h.865zm5.957 1.202-1.434 1.128V40.1h-.928v-7.645h.928v5.02l3.079-2.647h1.287l-2.225 1.96 2.373 3.312h-1.16z"/><path fill="url(#a)" d="M8.562 34.215a6.52 6.52 0 0 1-2.718-3.738l-2.99-12.435L0 16.139l3.534 14.882a8.85 8.85 0 0 0 3.67 5.164l11.62 7.747v-2.854zm34.113-16.31-2.99 12.572a6.45 6.45 0 0 1-2.718 3.806l-10.33 6.863V44l11.62-7.747a8.85 8.85 0 0 0 3.67-5.164l3.602-15.086zM26.298.715a9.1 9.1 0 0 0-7.067 0L.747 8.664l2.31 1.563 17.125-7.339a6.23 6.23 0 0 1 5.165 0l17.124 7.407 2.31-1.563z"/><path fill="url(#b)" d="M20.59 21.1c-.747 0-1.563-.204-2.242-.68l-3.534-2.378 2.107-1.427 2.718 1.834c.543.34 1.29.34 1.835 0l7.135-4.756 2.106 1.427-7.95 5.3c-.612.476-1.427.68-2.175.68"/><path fill="url(#c)" d="M24.94 22.798c.747 0 1.562.204 2.242.68l3.533 2.378-2.174 1.427-2.718-1.834a1.78 1.78 0 0 0-1.835 0l-7.135 4.756-2.107-1.427 7.95-5.3c.68-.476 1.496-.68 2.243-.68"/><defs><linearGradient id="a" x1="45.468" x2=".218" y1="0" y2="44.173" gradientUnits="userSpaceOnUse"><stop stop-color="#9A3EFA"/><stop offset=".502" stop-color="#59C9E5"/><stop offset="1" stop-color="#5CE6B8"/></linearGradient><linearGradient id="b" x1="45.468" x2=".218" y1="0" y2="44.173" gradientUnits="userSpaceOnUse"><stop stop-color="#9A3EFA"/><stop offset=".502" stop-color="#59C9E5"/><stop offset="1" stop-color="#5CE6B8"/></linearGradient><linearGradient id="c" x1="45.468" x2=".218" y1="0" y2="44.173" gradientUnits="userSpaceOnUse"><stop stop-color="#9A3EFA"/><stop offset=".502" stop-color="#59C9E5"/><stop offset="1" stop-color="#5CE6B8"/></linearGradient></defs></svg>